REM DIRINDEX 1\6,1\2\7,1\2\8,1\2\9,1\3\10,1\3\11,1\4\12,1\4\13,1\4\14,1\5\15,1\5\16,1\5\17
REM DIRNAME cjc041,folder01,folder02,folder03,folder04,folder05,folder06,folder07,folder08,folder09,folder10,folder11,folder12,folder13,folder14,folder15,folder16
TITLE ""
FILE "3Q_t2_0803-0818.mp3" MP3
  TRACK 01 AUDIO
    TITLE "7:cjc041_5827"
    INDEX 01 00:00:00
  TRACK 02 AUDIO
    TITLE "0:"
    INDEX 01 00:01:03
  TRACK 03 AUDIO
    TITLE "8:cjc041_5828"
    INDEX 01 00:01:60
  TRACK 04 AUDIO
    TITLE "0:"
    INDEX 01 00:04:27
  TRACK 05 AUDIO
    TITLE "9:cjc041_5829"
    INDEX 01 00:05:07
  TRACK 06 AUDIO
    TITLE "0:"
    INDEX 01 00:06:22
  TRACK 07 AUDIO
    TITLE "7:cjc041_5830"
    INDEX 01 00:08:07
  TRACK 08 AUDIO
    TITLE "0:"
    INDEX 01 00:09:28
  TRACK 09 AUDIO
    TITLE "8:cjc041_5831"
    INDEX 01 00:10:02
  TRACK 10 AUDIO
    TITLE "0:"
    INDEX 01 00:11:15
  TRACK 11 AUDIO
    TITLE "9:cjc041_5832"
    INDEX 01 00:11:62
  TRACK 12 AUDIO
    TITLE "0:"
    INDEX 01 00:13:10
  TRACK 13 AUDIO
    TITLE "7:cjc041_5833"
    INDEX 01 00:14:66
  TRACK 14 AUDIO
    TITLE "0:"
    INDEX 01 00:16:30
  TRACK 15 AUDIO
    TITLE "8:cjc041_5834"
    INDEX 01 00:17:14
  TRACK 16 AUDIO
    TITLE "0:"
    INDEX 01 00:18:33
  TRACK 17 AUDIO
    TITLE "9:cjc041_5835"
    INDEX 01 00:19:09
  TRACK 18 AUDIO
    TITLE "0:"
    INDEX 01 00:20:49
  TRACK 19 AUDIO
    TITLE "7:cjc041_5836"
    INDEX 01 00:22:27
  TRACK 20 AUDIO
    TITLE "0:"
    INDEX 01 00:23:48
  TRACK 21 AUDIO
    TITLE "8:cjc041_5837"
    INDEX 01 00:24:33
  TRACK 22 AUDIO
    TITLE "0:"
    INDEX 01 00:25:39
  TRACK 23 AUDIO
    TITLE "9:cjc041_5838"
    INDEX 01 00:26:11
  TRACK 24 AUDIO
    TITLE "0:"
    INDEX 01 00:27:36
  TRACK 25 AUDIO
    TITLE "7:cjc041_5839"
    INDEX 01 00:29:15
  TRACK 26 AUDIO
    TITLE "0:"
    INDEX 01 00:30:36
  TRACK 27 AUDIO
    TITLE "8:cjc041_5840"
    INDEX 01 00:31:18
  TRACK 28 AUDIO
    TITLE "0:"
    INDEX 01 00:32:54
  TRACK 29 AUDIO
    TITLE "9:cjc041_5841"
    INDEX 01 00:33:32
  TRACK 30 AUDIO
    TITLE "0:"
    INDEX 01 00:34:51
  TRACK 31 AUDIO
    TITLE "7:cjc041_5842"
    INDEX 01 00:36:33
  TRACK 32 AUDIO
    TITLE "0:"
    INDEX 01 00:37:54
  TRACK 33 AUDIO
    TITLE "8:cjc041_5843"
    INDEX 01 00:38:37
  TRACK 34 AUDIO
    TITLE "0:"
    INDEX 01 00:40:58
  TRACK 35 AUDIO
    TITLE "9:cjc041_5844"
    INDEX 01 00:41:36
  TRACK 36 AUDIO
    TITLE "0:"
    INDEX 01 00:42:57
  TRACK 37 AUDIO
    TITLE "7:cjc041_5845"
    INDEX 01 00:44:40
  TRACK 38 AUDIO
    TITLE "0:"
    INDEX 01 00:45:63
  TRACK 39 AUDIO
    TITLE "8:cjc041_5846"
    INDEX 01 00:46:47
  TRACK 40 AUDIO
    TITLE "0:"
    INDEX 01 00:47:54
  TRACK 41 AUDIO
    TITLE "9:cjc041_5847"
    INDEX 01 00:48:34
  TRACK 42 AUDIO
    TITLE "0:"
    INDEX 01 00:49:57
  TRACK 43 AUDIO
    TITLE "7:cjc041_5848"
    INDEX 01 00:51:38
  TRACK 44 AUDIO
    TITLE "0:"
    INDEX 01 00:52:69
  TRACK 45 AUDIO
    TITLE "8:cjc041_5849"
    INDEX 01 00:53:45
  TRACK 46 AUDIO
    TITLE "0:"
    INDEX 01 00:56:22
  TRACK 47 AUDIO
    TITLE "9:cjc041_5850"
    INDEX 01 00:57:01
  TRACK 48 AUDIO
    TITLE "0:"
    INDEX 01 00:58:30
  TRACK 49 AUDIO
    TITLE "7:cjc041_5851"
    INDEX 01 01:00:13
  TRACK 50 AUDIO
    TITLE "0:"
    INDEX 01 01:01:34
  TRACK 51 AUDIO
    TITLE "8:cjc041_5852"
    INDEX 01 01:02:12
  TRACK 52 AUDIO
    TITLE "0:"
    INDEX 01 01:03:18
  TRACK 53 AUDIO
    TITLE "9:cjc041_5853"
    INDEX 01 01:04:03
  TRACK 54 AUDIO
    TITLE "0:"
    INDEX 01 01:05:24
  TRACK 55 AUDIO
    TITLE "7:cjc041_5854"
    INDEX 01 01:07:08
  TRACK 56 AUDIO
    TITLE "0:"
    INDEX 01 01:08:25
  TRACK 57 AUDIO
    TITLE "8:cjc041_5855"
    INDEX 01 01:08:74
  TRACK 58 AUDIO
    TITLE "0:"
    INDEX 01 01:11:25
  TRACK 59 AUDIO
    TITLE "9:cjc041_5856"
    INDEX 01 01:12:01
  TRACK 60 AUDIO
    TITLE "0:"
    INDEX 01 01:13:18
  TRACK 61 AUDIO
    TITLE "7:cjc041_5857"
    INDEX 01 01:14:72
  TRACK 62 AUDIO
    TITLE "0:"
    INDEX 01 01:16:30
  TRACK 63 AUDIO
    TITLE "8:cjc041_5858"
    INDEX 01 01:17:10
  TRACK 64 AUDIO
    TITLE "0:"
    INDEX 01 01:19:19
  TRACK 65 AUDIO
    TITLE "9:cjc041_5859"
    INDEX 01 01:19:72
  TRACK 66 AUDIO
    TITLE "0:"
    INDEX 01 01:21:31
  TRACK 67 AUDIO
    TITLE "7:cjc041_5860"
    INDEX 01 01:23:15
  TRACK 68 AUDIO
    TITLE "0:"
    INDEX 01 01:24:30
  TRACK 69 AUDIO
    TITLE "8:cjc041_5861"
    INDEX 01 01:25:09
  TRACK 70 AUDIO
    TITLE "0:"
    INDEX 01 01:26:30
  TRACK 71 AUDIO
    TITLE "9:cjc041_5862"
    INDEX 01 01:27:14
  TRACK 72 AUDIO
    TITLE "0:"
    INDEX 01 01:28:31
  TRACK 73 AUDIO
    TITLE "7:cjc041_5863"
    INDEX 01 01:30:13
  TRACK 74 AUDIO
    TITLE "0:"
    INDEX 01 01:31:30
  TRACK 75 AUDIO
    TITLE "8:cjc041_5864"
    INDEX 01 01:32:12
  TRACK 76 AUDIO
    TITLE "0:"
    INDEX 01 01:33:58
  TRACK 77 AUDIO
    TITLE "9:cjc041_5865"
    INDEX 01 01:34:36
  TRACK 78 AUDIO
    TITLE "0:"
    INDEX 01 01:35:57
  TRACK 79 AUDIO
    TITLE "7:cjc041_5866"
    INDEX 01 01:37:34
  TRACK 80 AUDIO
    TITLE "0:"
    INDEX 01 01:38:67
  TRACK 81 AUDIO
    TITLE "8:cjc041_5867"
    INDEX 01 01:39:47
  TRACK 82 AUDIO
    TITLE "0:"
    INDEX 01 01:44:03
  TRACK 83 AUDIO
    TITLE "9:cjc041_5868"
    INDEX 01 01:44:56
  TRACK 84 AUDIO
    TITLE "0:"
    INDEX 01 01:46:10
  TRACK 85 AUDIO
    TITLE "7:cjc041_5869"
    INDEX 01 01:47:72
  TRACK 86 AUDIO
    TITLE "0:"
    INDEX 01 01:49:10
  TRACK 87 AUDIO
    TITLE "8:cjc041_5870"
    INDEX 01 01:49:65
  TRACK 88 AUDIO
    TITLE "0:"
    INDEX 01 01:51:01
  TRACK 89 AUDIO
    TITLE "9:cjc041_5871"
    INDEX 01 01:51:58
  TRACK 90 AUDIO
    TITLE "0:"
    INDEX 01 01:52:69
  TRACK 91 AUDIO
    TITLE "7:cjc041_5872"
    INDEX 01 01:54:54
  TRACK 92 AUDIO
    TITLE "0:"
    INDEX 01 01:55:65
  TRACK 93 AUDIO
    TITLE "8:cjc041_5873"
    INDEX 01 01:56:41
  TRACK 94 AUDIO
    TITLE "0:"
    INDEX 01 01:57:57
  TRACK 95 AUDIO
    TITLE "9:cjc041_5874"
    INDEX 01 01:58:38
  TRACK 96 AUDIO
    TITLE "0:"
    INDEX 01 01:59:51
